<svg width="48" height="48" viewBox="0 0 48 48" fill="none" xmlns="http://www.w3.org/2000/svg">
<path d="M20.7238 4.03028C22.8527 3.32361 25.1476 3.32361 27.2765 4.03028C29.3964 4.73409 31.0613 6.40311 32.7335 8.74805C34.4002 11.0853 36.2414 14.3443 38.6154 18.5449L38.7091 18.71C41.0834 22.9112 42.9247 26.1699 44.0724 28.8125C45.2256 31.468 45.8001 33.7612 45.3419 35.9639C44.8805 38.1817 43.7432 40.1993 42.0861 41.7236C40.433 43.2442 38.1818 43.8852 35.3478 44.1934C32.5296 44.4997 28.8426 44.5 24.0978 44.5H23.9025C19.1579 44.5 15.4716 44.4997 12.6534 44.1934C9.81913 43.8852 7.56732 43.2443 5.91418 41.7236C4.25703 40.1993 3.11977 38.1817 2.65832 35.9639C2.20013 33.7612 2.7746 31.468 3.92785 28.8125C5.07558 26.1699 6.91686 22.9112 9.29113 18.71L9.38488 18.5449C11.7588 14.3443 13.6 11.0853 15.2667 8.74805C16.9389 6.40312 18.6038 4.7341 20.7238 4.03028ZM23.9913 32C22.8917 32 22.0001 32.8954 22.0001 34C22.0001 35.1046 22.8917 36 23.9913 36H24.0089C25.1085 36 26.0001 35.1046 26.0001 34C26.0001 32.8954 25.1085 32 24.0089 32H23.9913ZM24.0001 16C22.8955 16 22.0001 16.8954 22.0001 18V26C22.0001 27.1046 22.8955 28 24.0001 28C25.1047 28 26.0001 27.1046 26.0001 26V18C26.0001 16.8954 25.1047 16 24.0001 16Z" fill="#DB3232"/>
</svg>
