<svg width="24" height="24" viewBox="0 0 24 24" fill="none" xmlns="http://www.w3.org/2000/svg">
<path d="M12.0576 1.75C14.2479 1.74999 15.9683 1.75012 17.3115 1.93066C18.6882 2.11575 19.7805 2.50313 20.6387 3.36133C21.4969 4.21953 21.8842 5.31182 22.0693 6.68848C22.2499 8.03173 22.25 9.75214 22.25 11.9424V12.0576C22.25 14.2479 22.2499 15.9683 22.0693 17.3115C21.8842 18.6882 21.4969 19.7805 20.6387 20.6387C19.7805 21.4969 18.6882 21.8842 17.3115 22.0693C15.9683 22.2499 14.2479 22.25 12.0576 22.25H11.9424C9.75212 22.25 8.03174 22.2499 6.68848 22.0693C5.31182 21.8842 4.21953 21.4969 3.36133 20.6387C2.50313 19.7805 2.11575 18.6882 1.93066 17.3115C1.75012 15.9683 1.74999 14.2479 1.75 12.0576V11.9424C1.74999 9.75213 1.75012 8.03174 1.93066 6.68848C2.11575 5.31182 2.50313 4.21953 3.36133 3.36133C4.21953 2.50313 5.31182 2.11575 6.68848 1.93066C8.03174 1.75012 9.75213 1.74999 11.9424 1.75H12.0576ZM16.8779 8.02051C16.6129 7.53595 16.0051 7.35807 15.5205 7.62305C13.692 8.62303 12.1798 10.5526 11.1631 12.1094C10.7874 12.6847 10.4658 13.23 10.209 13.6914C9.96946 13.459 9.73269 13.2566 9.52051 13.0889C9.24286 12.8694 8.99272 12.6965 8.81055 12.5771L8.49512 12.3818C8.01542 12.1084 7.40542 12.2753 7.13184 12.7549C6.85829 13.2345 7.0254 13.8454 7.50488 14.1191L7.71484 14.25C7.85766 14.3436 8.05796 14.4824 8.28027 14.6582C8.73776 15.0199 9.23134 15.4943 9.54199 16.0137C9.73266 16.3323 10.0843 16.5194 10.4551 16.499C10.8259 16.4786 11.1551 16.2537 11.3096 15.916L11.4082 15.7109C11.4759 15.5725 11.577 15.3695 11.709 15.1201C11.9735 14.6204 12.3586 13.9371 12.8379 13.2031C13.8212 11.6975 15.1092 10.1278 16.4805 9.37793C16.9648 9.11292 17.1427 8.50495 16.8779 8.02051Z" fill="#141B34"/>
</svg>
