<svg width="16" height="16" viewBox="0 0 16 16" fill="none" xmlns="http://www.w3.org/2000/svg">
<g clip-path="url(#clip0_1134_34664)">
<path opacity="0.4" d="M0.833252 8C0.833252 11.958 4.04188 15.1667 7.99992 15.1667C11.958 15.1667 15.1666 11.958 15.1666 8C15.1666 4.04196 11.958 0.833334 7.99992 0.833334C4.04188 0.833334 0.833252 4.04196 0.833252 8Z" fill="#B4B4B4"/>
<path d="M11.2518 5.34692C11.4284 5.66996 11.3098 6.07504 10.9867 6.25171C10.0725 6.75168 9.21392 7.79835 8.55838 8.80215C8.2388 9.2915 7.98241 9.74711 7.80608 10.0802C7.71808 10.2465 7.65047 10.3814 7.60533 10.4737L7.53985 10.6106C7.43685 10.8358 7.21748 10.9855 6.97027 10.9991C6.72299 11.0128 6.48853 10.8882 6.3614 10.6757C6.15426 10.3294 5.8251 10.0132 5.52006 9.77205C5.37184 9.65487 5.23843 9.56248 5.14322 9.50011L5.00303 9.41243C4.68337 9.22996 4.57206 8.82294 4.75443 8.50318C4.93683 8.18335 5.34398 8.07195 5.66381 8.25436L5.87384 8.38478C5.99529 8.46434 6.16188 8.57977 6.347 8.72613C6.48846 8.83798 6.64664 8.97247 6.80634 9.12741C6.97757 8.81982 7.19153 8.45666 7.44202 8.0731C8.1198 7.03523 9.12789 5.74857 10.347 5.08188C10.67 4.90522 11.0751 5.02388 11.2518 5.34692Z" fill="#B4B4B4"/>
</g>
<defs>
<clipPath id="clip0_1134_34664">
<rect width="16" height="16" fill="white"/>
</clipPath>
</defs>
</svg>
