<svg width="24" height="24" viewBox="0 0 24 24" fill="none" xmlns="http://www.w3.org/2000/svg">
<path fill-rule="evenodd" clip-rule="evenodd" d="M13.3473 1.28277C13.9124 1.33331 14.4435 1.50576 14.8996 1.84591C15.2369 2.09748 15.4712 2.40542 15.6714 2.73893C15.8569 3.04798 16.0437 3.4333 16.2555 3.8704L16.6823 4.7507H21C21.5523 4.7507 22 5.19842 22 5.7507C22 6.30299 21.5523 6.7507 21 6.7507C14.9998 6.7507 9.00019 6.7507 3 6.7507C2.44772 6.7507 2 6.30299 2 5.7507C2 5.19842 2.44772 4.7507 3 4.7507H7.40976L7.76556 3.97016C7.97212 3.51696 8.15403 3.11782 8.33676 2.79754C8.53387 2.45207 8.76721 2.13237 9.10861 1.87046C9.57032 1.51626 10.1121 1.33669 10.6899 1.28409C11.1249 1.24449 11.5634 1.24994 12 1.25064C12.5108 1.25146 12.97 1.24902 13.3473 1.28277ZM9.60776 4.7507H14.4597C14.233 4.28331 14.088 3.98707 13.9566 3.7682C13.7643 3.44787 13.5339 3.30745 13.1691 3.27482C12.9098 3.25163 12.5719 3.2507 12.0345 3.2507C11.4837 3.2507 11.137 3.25166 10.8712 3.27585C10.4971 3.30991 10.2639 3.45568 10.0739 3.78866C9.94941 4.00687 9.81387 4.29897 9.60776 4.7507Z" fill="#DB3232"/>
<path d="M19.582 15.6562C19.5053 16.9093 19.4451 17.9039 19.3203 18.6982C19.1924 19.5129 18.9878 20.1918 18.5781 20.7852C18.2034 21.3279 17.7206 21.7856 17.1611 22.1299C16.5495 22.5062 15.8657 22.6713 15.0527 22.75H8.92773C8.11384 22.6711 7.42949 22.506 6.81738 22.1289C6.2575 21.784 5.775 21.3249 5.40039 20.7812C4.99084 20.1869 4.78616 19.5072 4.65918 18.6914C4.53539 17.896 4.47635 16.9002 4.40137 15.6455L3.75 4.75H20.25L19.582 15.6562ZM10.5 15.4844C10.0858 15.4844 9.75 15.8202 9.75 16.2344C9.75 16.6486 10.0858 16.9844 10.5 16.9844H13.5C13.9142 16.9844 14.25 16.6486 14.25 16.2344C14.25 15.8202 13.9142 15.4844 13.5 15.4844H10.5ZM9 11.5664C8.58579 11.5664 8.25 11.9022 8.25 12.3164C8.25 12.7306 8.58579 13.0664 9 13.0664H15C15.4142 13.0664 15.75 12.7306 15.75 12.3164C15.75 11.9022 15.4142 11.5664 15 11.5664H9Z" fill="#DB3232"/>
</svg>
