<svg width="24" height="24" viewBox="0 0 24 24" fill="none" xmlns="http://www.w3.org/2000/svg">
<path d="M19.6394 4.92728C17.7538 3.62478 15.0525 2.25008 12 2.25008C8.94756 2.25008 6.24625 3.62478 4.3606 4.92728C3.40826 5.58511 2.63887 6.24187 2.10629 6.73521C1.84643 6.97594 1.42164 7.41197 1.26681 7.5709L1.25502 7.58299C0.886606 7.99444 0.921484 8.62664 1.33293 8.99506C1.74409 9.36323 2.37571 9.32865 2.74424 8.918L2.74502 8.91714C2.86755 8.79137 3.22618 8.42406 3.46543 8.20244C3.94491 7.75828 4.63998 7.16504 5.49728 6.57287C7.23092 5.37537 9.52961 4.25008 12 4.25008C14.4704 4.25008 16.7691 5.37537 18.5027 6.57287C19.36 7.16504 20.0551 7.75828 20.5346 8.20244C20.7738 8.42406 21.1332 8.79224 21.2558 8.918C21.6243 9.32865 22.2559 9.36323 22.6671 8.99506C23.0785 8.62664 23.1134 7.99444 22.745 7.58299L22.7331 7.57078C22.5782 7.41175 22.1535 6.97587 21.8937 6.73521C21.3612 6.24187 20.5918 5.58511 19.6394 4.92728Z" fill="#5F5E5E"/>
<path d="M12 6.25002C14.5705 6.25002 16.7739 7.38139 18.4795 8.71291C20.1867 10.0457 21.5022 11.6938 22.208 12.6836C22.4612 13.0357 22.75 13.4378 22.75 14C22.75 14.5622 22.4612 14.9643 22.208 15.3164C21.5022 16.3062 20.1867 17.9544 18.4795 19.2871C16.7739 20.6187 14.5705 21.75 12 21.75C9.42952 21.75 7.22613 20.6187 5.52051 19.2871C3.81333 17.9544 2.49785 16.3062 1.79199 15.3164C1.53884 14.9643 1.25 14.5622 1.25 14C1.25 13.4378 1.53884 13.0357 1.79199 12.6836C2.49785 11.6938 3.81333 10.0457 5.52051 8.71291C7.22613 7.38139 9.42953 6.25002 12 6.25002ZM12 10C9.79086 10 8 11.7909 8 14C8 16.2092 9.79086 18 12 18C14.2091 18 16 16.2092 16 14C16 11.7909 14.2091 10 12 10ZM12 12C13.1046 12 14 12.8955 14 14C14 15.1046 13.1046 16 12 16C10.8954 16 10 15.1046 10 14C10 12.8955 10.8954 12 12 12Z" fill="#5F5E5E"/>
</svg>
