<svg width="24" height="24" viewBox="0 0 24 24" fill="none" xmlns="http://www.w3.org/2000/svg">
<path d="M6.18213 2.25009C5.41159 2.25006 4.7574 2.25003 4.2413 2.32035C3.69502 2.39479 3.17269 2.56282 2.7728 3.00275C2.36942 3.44653 2.259 3.98134 2.25053 4.52803C2.24262 5.03859 2.32429 5.6728 2.41951 6.41226L2.42644 6.46612C2.46012 6.72779 2.51062 6.98087 2.61595 7.23425C2.72289 7.49152 2.87013 7.71063 3.05351 7.92838C4.03182 9.09009 5.84956 11.1886 8.40839 13.1006C8.45034 13.1319 8.50273 13.206 8.51176 13.3162C8.79286 16.7486 9.0506 19.096 9.18796 20.2555C9.25434 20.8159 9.56871 21.3056 10.0428 21.5647C10.5353 21.8338 11.1464 21.8199 11.6591 21.4575C11.8463 21.3252 12.0743 21.1868 12.3465 21.0215L12.4259 20.9733C12.7217 20.7935 13.0559 20.5881 13.3719 20.3593C13.9733 19.9239 14.68 19.2867 14.8513 18.373C14.9323 17.941 15.0245 17.3791 15.1268 16.5963C15.1713 16.2551 15.1936 16.0845 15.1271 15.9491C15.0605 15.8136 14.8892 15.7137 14.5465 15.5138C13.1194 14.6818 12.0803 13.2598 11.7456 11.5931C11.6074 10.9047 11.7921 10.2264 12.1953 9.71514C12.368 9.49621 12.4543 9.38674 12.4671 9.31099C12.4798 9.23523 12.4339 9.10352 12.3423 8.84011C12.2006 8.43315 12.173 7.98594 12.2778 7.54836L12.7772 5.46399C13.0731 4.22869 14.3144 3.46718 15.5497 3.76313C15.8818 3.84268 16.1795 3.99043 16.4316 4.18797C16.6988 4.39731 16.8324 4.50198 16.9135 4.52935C16.9945 4.55672 17.1287 4.55497 17.3972 4.55147C17.4198 4.55117 17.4425 4.55102 17.4653 4.55102C18.7914 4.55102 20.0075 4.99372 20.9823 5.73678C21.2784 5.96244 21.4264 6.07527 21.5338 6.02887C21.6413 5.98247 21.6594 5.80949 21.6955 5.46353C21.7317 5.11737 21.7537 4.80456 21.7494 4.52803C21.741 3.98134 21.6306 3.44653 21.2272 3.00275C20.8273 2.56282 20.3049 2.39479 19.7587 2.32035C19.2426 2.25003 18.5884 2.25006 17.8179 2.25009H6.18213Z" fill="#333DFF"/>
<path fill-rule="evenodd" clip-rule="evenodd" d="M16.0062 6.12071C16.0673 5.62269 15.7459 5.14742 15.2464 5.02775C14.7093 4.89908 14.1696 5.23016 14.0409 5.76725L13.5416 7.85162C13.447 8.24641 13.6005 8.65919 13.93 8.8963C14.2595 9.13341 14.6997 9.14778 15.0439 8.93267C15.1599 8.86019 15.2701 8.79052 15.3755 8.72392C16.2227 8.18829 16.7555 7.85142 17.4648 7.85142C18.8547 7.85142 20.0002 8.99364 20.0002 10.4258C20.0002 11.858 18.8547 13.0002 17.4648 13.0002C16.2476 13.0002 15.2178 12.1249 14.9806 10.9439C14.8719 10.4024 14.3448 10.0516 13.8033 10.1603C13.2619 10.269 12.911 10.7961 13.0198 11.3375C13.4378 13.4195 15.2613 15.0002 17.4648 15.0002C19.98 15.0002 22.0002 12.9418 22.0002 10.4258C22.0002 7.90983 19.98 5.85142 17.4648 5.85142C16.9349 5.85142 16.449 5.95901 16.0062 6.12071Z" fill="#333DFF"/>
</svg>
