<svg width="24" height="24" viewBox="0 0 24 24" fill="none" xmlns="http://www.w3.org/2000/svg">
<path d="M12.0576 1.75C14.2479 1.74999 15.9683 1.75012 17.3115 1.93066C18.6882 2.11575 19.7805 2.50313 20.6387 3.36133C21.4969 4.21953 21.8842 5.31182 22.0693 6.68848C22.2499 8.03174 22.25 9.75212 22.25 11.9424V12.0576C22.25 14.2479 22.2499 15.9683 22.0693 17.3115C21.8842 18.6882 21.4969 19.7805 20.6387 20.6387C19.7805 21.4969 18.6882 21.8842 17.3115 22.0693C15.9683 22.2499 14.2479 22.25 12.0576 22.25H11.9424C9.75212 22.25 8.03174 22.2499 6.68848 22.0693C5.31182 21.8842 4.21953 21.4969 3.36133 20.6387C2.50313 19.7805 2.11575 18.6882 1.93066 17.3115C1.75012 15.9683 1.74999 14.2479 1.75 12.0576V11.9424C1.74999 9.75213 1.75012 8.03174 1.93066 6.68848C2.11575 5.31182 2.50313 4.21953 3.36133 3.36133C4.21953 2.50313 5.31182 2.11575 6.68848 1.93066C8.03174 1.75012 9.75213 1.74999 11.9424 1.75H12.0576ZM7.75977 8.25C7.44714 8.24619 7.1641 8.43713 7.05078 8.72852L5.30078 13.2285L4.78906 14.7637C4.65833 15.1564 4.87003 15.5808 5.2627 15.7119C5.65565 15.8429 6.08093 15.6303 6.21191 15.2373L6.54102 14.25H8.875L9.30762 15.2891C9.46696 15.6713 9.90674 15.8517 10.2891 15.6924C10.6711 15.5329 10.8516 15.0941 10.6924 14.7119L10.0742 13.2285L8.45605 8.74609C8.34991 8.45216 8.07222 8.25398 7.75977 8.25ZM13.1602 8.25C13.026 8.24914 12.81 8.24796 12.6143 8.31152C12.2337 8.43517 11.9352 8.73371 11.8115 9.11426C11.748 9.30998 11.7491 9.52604 11.75 9.66016V15C11.75 15.4141 12.086 15.7498 12.5 15.75C12.9142 15.75 13.25 15.4142 13.25 15V12.75H14.5C15.7426 12.75 16.75 11.7426 16.75 10.5C16.7498 9.25754 15.7425 8.25 14.5 8.25H13.1602ZM18.5 8.25C18.0859 8.25 17.7502 8.58596 17.75 9V15C17.75 15.4142 18.0858 15.75 18.5 15.75C18.9142 15.75 19.25 15.4142 19.25 15V9C19.2498 8.58596 18.9141 8.25 18.5 8.25ZM8.30664 12.75H7.09668L7.72461 11.1367L8.30664 12.75ZM14.5 9.75C14.9141 9.75 15.2498 10.086 15.25 10.5C15.25 10.9142 14.9142 11.25 14.5 11.25H13.25V9.75H14.5Z" fill="#333DFF"/>
</svg>
