<svg width="24" height="24" viewBox="0 0 24 24" fill="none" xmlns="http://www.w3.org/2000/svg">
<path d="M11.9995 1.25C13.6806 1.2501 15.0481 1.81801 16.2407 2.43555C16.601 2.6221 16.9355 2.80705 17.2554 2.9834C18.0384 3.41507 18.7327 3.79703 19.4946 4.04004L19.52 4.04883C19.9672 4.19141 20.3378 4.3099 20.6187 4.41992C20.8831 4.52351 21.1974 4.6653 21.4204 4.91309C21.6207 5.13561 21.7243 5.38505 21.7925 5.62402C21.8544 5.84101 21.9019 6.10487 21.9527 6.38672L21.9575 6.41699C23.1958 13.2824 20.4916 19.7874 13.8814 22.3184L13.8491 22.3301C13.1994 22.5789 12.7535 22.75 12.0025 22.75C11.2514 22.75 10.8055 22.5789 10.1558 22.3301L10.1226 22.3184C3.5123 19.7874 0.805553 13.2826 2.04348 6.41699L2.04934 6.38672C2.10012 6.1049 2.14756 5.84101 2.20949 5.62402C2.27771 5.38517 2.38048 5.1355 2.58059 4.91309C2.80355 4.66529 3.11793 4.52354 3.38235 4.41992C3.66321 4.30986 4.03383 4.19149 4.48098 4.04883L4.50637 4.04004C5.2678 3.79709 5.96139 3.41494 6.74367 2.9834C7.06348 2.80698 7.39904 2.62219 7.7593 2.43555C8.95135 1.81801 10.3184 1.25 11.9995 1.25ZM12.0005 6.25C11.5863 6.25 11.2505 6.58579 11.2505 7V7.42383C10.6353 7.52852 10.0699 7.76081 9.61184 8.09668C8.97307 8.56506 8.50051 9.27474 8.50051 10.1279C8.50054 10.8784 8.7692 11.5724 9.45754 12.0332C10.0817 12.4511 10.9527 12.6064 12.0005 12.6064C12.9584 12.6065 13.5282 12.7505 13.8423 12.9541C14.0881 13.1135 14.2505 13.3546 14.2505 13.873C14.2504 14.3086 14.0709 14.5779 13.7368 14.7773C13.3572 15.0039 12.761 15.1386 12.0005 15.1387C11.3008 15.1387 10.7007 14.9468 10.2974 14.6758C9.88962 14.4017 9.75067 14.1039 9.75051 13.873C9.75051 13.459 9.41452 13.1233 9.00051 13.123C8.5863 13.123 8.25051 13.4588 8.25051 13.873C8.25067 14.7556 8.78279 15.4654 9.46047 15.9209C9.96106 16.2574 10.5791 16.4867 11.2505 16.585V17C11.2505 17.4142 11.5863 17.75 12.0005 17.75C12.4145 17.7498 12.7505 17.4141 12.7505 17V16.6006C13.3868 16.5325 13.9973 16.3686 14.5054 16.0654C15.2569 15.6168 15.7504 14.8774 15.7505 13.873C15.7505 12.9514 15.4118 12.1841 14.6577 11.6953C13.972 11.2508 13.0422 11.1065 12.0005 11.1064C11.0484 11.1064 10.5433 10.954 10.2925 10.7861C10.1059 10.6612 10.0005 10.4909 10.0005 10.1279C10.0005 9.86752 10.1422 9.56803 10.4986 9.30664C10.8546 9.04554 11.3838 8.86133 12.0005 8.86133C12.617 8.86142 13.1455 9.0456 13.5015 9.30664C13.8579 9.56804 14.0005 9.86751 14.0005 10.1279C14.0006 10.5421 14.3363 10.8779 14.7505 10.8779C15.1645 10.8777 15.5004 10.5419 15.5005 10.1279C15.5005 9.27474 15.027 8.56506 14.3882 8.09668C13.9302 7.7609 13.3656 7.52855 12.7505 7.42383V7C12.7505 6.58594 12.4145 6.25024 12.0005 6.25Z" fill="#333DFF"/>
</svg>
