<svg width="24" height="24" viewBox="0 0 24 24" fill="none" xmlns="http://www.w3.org/2000/svg">
<path d="M13.1834 5.25C14.3134 5.24998 15.2294 5.24959 15.9636 5.33887C16.7282 5.43185 17.3823 5.63052 17.947 6.08691C18.5122 6.54366 18.8422 7.14153 19.0916 7.86914C19.3308 8.56711 19.52 9.46057 19.7527 10.5615L21.6834 19.6982C21.7444 19.9984 21.8181 20.6745 21.6248 20.9756C21.3155 21.6343 20.6498 21.9663 20.0408 22.0127C19.414 22.0603 18.6924 21.8191 18.2703 21.1494C18.2177 21.0661 18.1032 20.9894 17.9353 20.9814C17.7677 20.9736 17.6358 21.0388 17.5662 21.126L17.0154 21.8164C16.0214 23.0612 14.0015 23.0613 13.0076 21.8164C12.789 21.5427 12.3512 21.2969 11.9998 21.2969C11.6483 21.2969 11.2106 21.5427 10.992 21.8164C9.99803 23.0613 7.97809 23.0612 6.98414 21.8164L6.43336 21.126C6.36374 21.0388 6.23188 20.9736 6.06422 20.9814C5.89631 20.9894 5.78185 21.0661 5.72926 21.1494C5.30712 21.8191 4.5855 22.0603 3.95875 22.0127C3.34977 21.9663 2.68401 21.6343 2.37477 20.9756C2.18141 20.6745 2.25517 19.9984 2.31617 19.6982L4.24684 10.5615C4.47949 9.46055 4.66875 8.56712 4.90797 7.86914C5.15737 7.14153 5.48736 6.54366 6.0525 6.08691C6.61723 5.63052 7.27134 5.43185 8.0359 5.33887C8.7701 5.24959 9.68611 5.24998 10.8162 5.25H13.1834ZM7.99977 13.25C7.58555 13.25 7.24977 13.5858 7.24977 14C7.24977 14.4142 7.58555 14.75 7.99977 14.75H13.9998C14.414 14.75 14.7498 14.4142 14.7498 14C14.7498 13.5858 14.414 13.25 13.9998 13.25H7.99977ZM8.99977 9.25C8.58555 9.25 8.24977 9.58579 8.24977 10C8.24977 10.4142 8.58555 10.75 8.99977 10.75H11.9998C12.414 10.75 12.7498 10.4142 12.7498 10C12.7498 9.58579 12.414 9.25 11.9998 9.25H8.99977Z" fill="#333DFF"/>
<path fill-rule="evenodd" clip-rule="evenodd" d="M6.07495 1.25C6.09695 1.25 6.11902 1.25001 6.14117 1.25001L17.9252 1.25C18.7891 1.24995 19.5372 1.24991 20.1371 1.33111C20.7842 1.41873 21.4008 1.61673 21.8969 2.11636C22.3881 2.61093 22.5779 3.21692 22.6626 3.8511C22.7422 4.44779 22.7422 5.19468 22.7422 6.06963L22.7422 6.13062C22.7422 6.36995 22.7443 6.59989 22.7464 6.81886C22.7517 7.38963 22.7563 7.88588 22.7203 8.2796C22.6644 8.89092 22.5004 9.45974 22.0039 9.95966C21.6296 10.3366 21.011 10.348 20.6221 9.98514C20.2333 9.62228 20.2215 9.02255 20.5958 8.64561C20.6714 8.56951 20.7398 8.4794 20.7734 8.11226C20.8005 7.81569 20.7972 7.46151 20.7924 6.95031C20.7901 6.71393 20.7876 6.44398 20.7876 6.13062C20.7876 5.17774 20.7857 4.55487 20.7242 4.0943C20.6658 3.65741 20.5697 3.51185 20.4888 3.43041C20.4129 3.35402 20.2832 3.26402 19.8667 3.20764C19.4182 3.14691 18.8083 3.14474 17.8589 3.14474L6.14117 3.14474C5.19187 3.14474 4.58196 3.14691 4.13342 3.20764C3.71692 3.26402 3.58717 3.35402 3.51132 3.43041C3.43044 3.51185 3.33428 3.6574 3.27594 4.0943C3.21445 4.55487 3.21253 5.17774 3.21253 6.13062C3.21253 6.44562 3.20993 6.71673 3.20767 6.95398C3.2028 7.46333 3.19942 7.81653 3.22639 8.11257C3.25986 8.47981 3.32825 8.5697 3.40363 8.64561C3.77795 9.02255 3.76618 9.62228 3.37734 9.98514C2.9885 10.348 2.36983 10.3366 1.9955 9.95966C1.49887 9.45955 1.33511 8.89051 1.27941 8.27929C1.24362 7.88646 1.24831 7.39125 1.2537 6.82187C1.25578 6.60197 1.25796 6.37102 1.25796 6.13062C1.25796 6.11022 1.25796 6.08988 1.25796 6.06962C1.25792 5.19467 1.25788 4.44779 1.33755 3.8511C1.42222 3.21692 1.61206 2.61093 2.10319 2.11636C2.59935 1.61673 3.21592 1.41873 3.86306 1.33111C4.46288 1.24991 5.21101 1.24995 6.07495 1.25Z" fill="#333DFF"/>
</svg>
