<svg width="24" height="24" viewBox="0 0 24 24" fill="none" xmlns="http://www.w3.org/2000/svg">
<path d="M2.98515 10.205C3.25474 9.87577 3.38954 9.71115 3.52051 9.75807C3.65149 9.80498 3.6511 10.0334 3.65031 10.4901C3.6503 10.4959 3.65029 10.5017 3.65029 10.5075C3.65029 15.9432 8.05679 20.3497 13.4925 20.3497C13.4983 20.3497 13.5041 20.3497 13.5098 20.3496C13.9666 20.3489 14.195 20.3485 14.2419 20.4794C14.2888 20.6104 14.1242 20.7452 13.795 21.0148C12.4704 22.0994 10.777 22.7502 8.93147 22.7502C4.68898 22.7502 1.24976 19.311 1.24976 15.0685C1.24976 13.223 1.90054 11.5295 2.98515 10.205Z" fill="#333DFF"/>
<path d="M13.9998 1.2502C18.8322 1.2502 22.7498 5.16771 22.7498 10.0002C22.7498 14.8327 18.8322 18.7502 13.9998 18.7502C9.16726 18.7502 5.24976 14.8327 5.24976 10.0002C5.24976 5.16771 9.16726 1.2502 13.9998 1.2502ZM16.6707 5.76973C16.2674 5.6755 15.8637 5.92613 15.7693 6.3293C15.6455 6.85895 15.1058 8.05945 13.9998 8.75508C12.8937 8.05945 12.354 6.85895 12.2302 6.3293C12.1358 5.92615 11.7321 5.67547 11.3289 5.76973C10.9257 5.86412 10.6751 6.26786 10.7693 6.6711C10.9516 7.45094 11.6735 9.09034 13.2498 10.0549V10.4172H11.9167C11.5025 10.4172 11.1667 10.753 11.1667 11.1672C11.1668 11.5813 11.5026 11.9172 11.9167 11.9172H13.2498V13.5002C13.2498 13.9144 13.5856 14.2501 13.9998 14.2502C14.414 14.2502 14.7498 13.9144 14.7498 13.5002V11.9172H16.0837C16.4977 11.9169 16.8337 11.5812 16.8337 11.1672C16.8337 10.7531 16.4977 10.4175 16.0837 10.4172H14.7498V10.0549C16.3261 9.09035 17.0479 7.45097 17.2302 6.6711C17.3245 6.26776 17.074 5.86402 16.6707 5.76973Z" fill="#333DFF"/>
</svg>
