<svg width="24" height="24" viewBox="0 0 24 24" fill="none" xmlns="http://www.w3.org/2000/svg">
<path d="M14.0889 2.24996C14.8661 2.24954 15.4434 2.24916 15.9434 2.38277C17.2924 2.74339 18.3465 3.79473 18.708 5.14058C18.7934 5.45839 18.8239 5.80765 18.835 6.21968C18.9808 6.23255 19.1211 6.24751 19.2559 6.26558C20.1626 6.3872 20.9643 6.65224 21.6055 7.29195C22.2466 7.93165 22.5119 8.73108 22.6338 9.6357C22.7499 10.4973 22.75 11.586 22.75 12.9062V14.9941C22.75 16.3142 22.7499 17.403 22.6338 18.2646C22.5119 19.169 22.2464 19.9678 21.6055 20.6074C20.9643 21.2471 20.1626 21.5121 19.2559 21.6337C18.3924 21.7495 17.3014 21.75 15.9785 21.75H9.97363C8.19182 21.75 6.75558 21.7501 5.62598 21.5986C4.45325 21.4413 3.46591 21.1045 2.68164 20.3222C1.89742 19.5398 1.55908 18.5547 1.40137 17.3847C1.24949 16.2577 1.24997 14.8237 1.25 13.0459V5.17476C1.25015 3.55952 2.56262 2.25005 4.18164 2.24996H14.0889ZM17.5 12C16.3954 12 15.5 12.8954 15.5 14C15.5 15.1045 16.3954 16 17.5 16C18.6046 16 19.5 15.1045 19.5 14C19.5 12.8954 18.6046 12 17.5 12ZM4.18164 4.20015C3.642 4.20015 3.20425 4.63641 3.2041 5.17476C3.2041 5.71323 3.64191 6.15035 4.18164 6.15035H15.9775C16.2899 6.15034 16.5894 6.14981 16.876 6.15132C16.867 5.89947 16.8505 5.76145 16.8193 5.64546C16.6386 4.97262 16.1119 4.44693 15.4375 4.26656C15.2203 4.20849 14.9259 4.20015 13.9541 4.20015H4.18164Z" fill="#333DFF"/>
</svg>
