<svg width="24" height="24" viewBox="0 0 24 24" fill="none" xmlns="http://www.w3.org/2000/svg">
<path d="M16.875 1.125C17.9947 1.125 19.0652 1.24797 20.042 1.47168C20.959 1.68173 21.6574 2.08741 22.0967 2.7627C22.5176 3.40975 22.625 4.19245 22.625 4.98926V13.2178C22.625 13.3852 22.3198 13.458 22.2178 13.3252L22.2148 13.3213C22.1686 13.2609 22.1173 13.204 22.0625 13.1514L20.9248 12.0576C20.9172 12.0503 20.9092 12.0433 20.9014 12.0361C19.8856 11.1009 18.3043 11.1659 17.3691 12.1816C17.34 12.2133 17.3114 12.2456 17.2842 12.2783C17.1671 12.4192 17.1084 12.4902 17.0479 12.5186C16.9874 12.5468 16.911 12.5469 16.7588 12.5469H16.7529C13.8259 12.5469 11.375 14.8897 11.375 17.875C11.375 17.9358 11.3787 17.9958 11.3857 18.0547C11.4393 18.503 11.4661 18.7274 11.4072 18.8184C11.3483 18.9093 11.2097 18.9519 10.9336 19.0381C9.72823 19.4144 8.34079 19.625 6.875 19.625C5.7553 19.625 4.68485 19.502 3.70801 19.2783C2.83234 19.0778 2.14021 18.6858 1.69141 18.0234C1.25752 17.3829 1.125 16.5962 1.125 15.7607V4.98926C1.125 3.42225 2.71564 2.51291 4.04199 2.81641C4.90443 3.01394 5.863 3.125 6.875 3.125C8.70065 3.125 10.3398 2.76412 11.5576 2.19531C13.0048 1.51941 14.8665 1.125 16.875 1.125ZM11.875 7.375C10.2181 7.375 8.875 8.71815 8.875 10.375C8.875 12.0319 10.2181 13.375 11.875 13.375C13.5319 13.375 14.875 12.0319 14.875 10.375C14.875 8.71815 13.5319 7.375 11.875 7.375ZM5.375 10.375C4.82272 10.375 4.375 10.8227 4.375 11.375V11.3838C4.375 11.9361 4.82272 12.3838 5.375 12.3838C5.92728 12.3838 6.375 11.9361 6.375 11.3838V11.375C6.375 10.8227 5.92728 10.375 5.375 10.375ZM18.375 8.36719C17.8227 8.36719 17.375 8.8149 17.375 9.36719V9.37598C17.375 9.92826 17.8227 10.376 18.375 10.376C18.9273 10.376 19.375 9.92826 19.375 9.37598V9.36719C19.375 8.8149 18.9273 8.36719 18.375 8.36719Z" fill="#333DFF"/>
<path d="M18.4727 13.1977C18.8467 12.7914 19.4794 12.7652 19.8857 13.1393L21.0233 14.2326C21.0918 14.3221 21.4349 14.7798 21.1903 15.3603C20.9494 15.9318 20.3924 16.0128 20.2838 16.0278C20.1439 16.0473 19.9815 16.047 19.883 16.0468L16.7527 16.0467C15.6993 16.0467 14.875 16.8815 14.875 17.875C14.875 18.4273 14.4273 18.875 13.875 18.875C13.3227 18.875 12.875 18.4273 12.875 17.875C12.875 15.7444 14.6275 14.0467 16.7527 14.0467H18.2231C18.1718 13.751 18.2536 13.4356 18.4727 13.1977Z" fill="#333DFF"/>
<path d="M21.875 16.875C22.4273 16.875 22.875 17.3227 22.875 17.875C22.875 20.0056 21.1225 21.7033 18.9973 21.7033H17.5269C17.5782 21.999 17.4964 22.3145 17.2773 22.5523C16.9033 22.9586 16.2706 22.9848 15.8643 22.6107L14.7267 21.5174C14.6582 21.4279 14.3151 20.9702 14.5597 20.3897C14.8006 19.8182 15.3576 19.7373 15.4662 19.7222C15.606 19.7027 15.7685 19.7031 15.867 19.7033H15.867L18.9973 19.7033C20.0507 19.7033 20.875 18.8685 20.875 17.875C20.875 17.3227 21.3227 16.875 21.875 16.875Z" fill="#333DFF"/>
</svg>
