<svg width="24" height="24" viewBox="0 0 24 24" fill="none" xmlns="http://www.w3.org/2000/svg">
<path d="M12 1.25C17.9371 1.25 22.75 6.06294 22.75 12C22.75 17.9371 17.9371 22.75 12 22.75C6.06294 22.75 1.25 17.9371 1.25 12C1.25 6.06294 6.06294 1.25 12 1.25ZM12.8984 6.25C12.4842 6.25 12.1484 6.58579 12.1484 7V7.5459H11.2441V7C11.2441 6.58588 10.9082 6.25016 10.4941 6.25C10.0799 6.25 9.74414 6.58579 9.74414 7V7.54688C9.60816 7.54886 9.47251 7.55504 9.35156 7.57129C9.1323 7.60077 8.85197 7.67646 8.61621 7.91211C8.38052 8.1478 8.30491 8.42818 8.27539 8.64746C8.25023 8.83464 8.24992 9.05664 8.25 9.26172V14.7383C8.24992 14.9434 8.25023 15.1654 8.27539 15.3525C8.30491 15.5718 8.38052 15.8522 8.61621 16.0879C8.85197 16.3235 9.1323 16.3992 9.35156 16.4287C9.47251 16.445 9.60816 16.4511 9.74414 16.4531V17C9.74414 17.4142 10.0799 17.75 10.4941 17.75C10.9082 17.7498 11.2441 17.4141 11.2441 17V16.4541H12.1484V17C12.1484 17.4142 12.4842 17.75 12.8984 17.75C13.3125 17.7499 13.6484 17.4141 13.6484 17V16.4141C14.8562 16.1967 15.75 15.1162 15.75 13.8516C15.7499 13.1335 15.4615 12.4749 14.9912 12C15.4615 11.5251 15.7499 10.8665 15.75 10.1484C15.75 8.88379 14.8562 7.80327 13.6484 7.58594V7C13.6484 6.58587 13.3125 6.25013 12.8984 6.25ZM13.2002 12.75C13.76 12.7501 14.2498 13.223 14.25 13.8516C14.25 14.4803 13.7601 14.954 13.2002 14.9541H10C9.90093 14.9541 9.82043 14.9533 9.75098 14.9521C9.74986 14.8829 9.75 14.8028 9.75 14.7041V12.75H13.2002ZM13.2002 9.0459C13.7601 9.046 14.25 9.51975 14.25 10.1484C14.2498 10.777 13.76 11.2499 13.2002 11.25H9.75V9.2959C9.75 9.1972 9.74986 9.11712 9.75098 9.04785C9.82043 9.04673 9.90093 9.0459 10 9.0459H13.2002Z" fill="#333DFF"/>
</svg>
