<svg width="24" height="24" viewBox="0 0 24 24" fill="none" xmlns="http://www.w3.org/2000/svg">
<path d="M16.875 2.12497C17.9947 2.12497 19.0652 2.24794 20.042 2.47165C20.959 2.6817 21.6574 3.08738 22.0967 3.76266C22.5176 4.40972 22.625 5.19242 22.625 5.98923V11.6718C22.625 12.0144 22.6245 12.186 22.5391 12.2734C22.4533 12.3604 22.2414 12.3653 21.8184 12.375C21.5597 12.3809 21.2972 12.4274 21.04 12.5185C19.9038 12.921 18.8971 13.6534 18.0977 14.3545C17.2725 15.0781 16.5194 15.9017 15.8965 16.6484C15.8422 16.7134 15.8151 16.7464 15.7891 16.7666C15.7121 16.8259 15.6296 16.843 15.5352 16.8203C15.5031 16.8125 15.4604 16.7923 15.376 16.7509C15.1638 16.6472 14.9583 16.5681 14.7637 16.5107C14.4021 16.3956 14.0385 16.3764 13.8896 16.375H13.875C12.4943 16.375 11.375 17.4943 11.375 18.875C11.375 18.9956 11.3839 19.1144 11.4004 19.2304C11.4467 19.5563 11.4694 19.7194 11.4111 19.8125C11.3526 19.9055 11.2286 19.9457 10.9805 20.0244C9.76433 20.4099 8.3597 20.625 6.875 20.625C5.7553 20.625 4.68485 20.502 3.70801 20.2783C2.83234 20.0777 2.14021 19.6858 1.69141 19.0234C1.25752 18.3829 1.125 17.5961 1.125 16.7607V5.98923C1.125 4.42222 2.71564 3.51288 4.04199 3.81638C4.90443 4.01391 5.863 4.12497 6.875 4.12497C8.70065 4.12497 10.3398 3.76409 11.5576 3.19528C13.0048 2.51938 14.8665 2.12497 16.875 2.12497ZM11.875 8.12497C10.0801 8.12497 8.625 9.58004 8.625 11.375C8.625 13.1699 10.0801 14.625 11.875 14.625C13.6699 14.625 15.125 13.1699 15.125 11.375C15.125 9.58004 13.6699 8.12497 11.875 8.12497ZM5.375 11.375C4.82272 11.375 4.375 11.8227 4.375 12.375V12.3838C4.375 12.936 4.82272 13.3838 5.375 13.3838C5.92728 13.3838 6.375 12.936 6.375 12.3838V12.375C6.375 11.8227 5.92728 11.375 5.375 11.375ZM18.375 9.36716C17.8227 9.36716 17.375 9.81487 17.375 10.3672V10.3759C17.375 10.9282 17.8227 11.3759 18.375 11.3759C18.9273 11.3759 19.375 10.9282 19.375 10.3759V10.3672C19.375 9.81487 18.9273 9.36716 18.375 9.36716Z" fill="#333DFF"/>
<path d="M22.8176 14.5412C23.002 15.0618 22.7294 15.6333 22.2088 15.8177C21.6752 16.0067 21.0587 16.4135 20.4057 16.9862C19.763 17.5499 19.1378 18.2268 18.5841 18.8906C18.0322 19.5521 17.5635 20.1859 17.2324 20.6548C17.0672 20.8888 16.9372 21.0805 16.8493 21.2126L16.7191 21.4113C16.5258 21.7153 16.1837 21.8921 15.8239 21.8737C15.4639 21.8553 15.1418 21.6446 14.9806 21.3222C14.5399 20.4409 14.1446 20.0899 13.9453 19.9571C13.861 19.9009 13.804 19.8783 13.7814 19.8707C13.273 19.8235 12.875 19.3957 12.875 18.875C12.875 18.3227 13.3227 17.875 13.875 17.875C13.9574 17.8758 14.1621 17.8909 14.3216 17.9448C14.5295 18.0041 14.7803 18.11 15.0547 18.293C15.329 18.4758 15.6166 18.7286 15.9054 19.0745C16.2206 18.6437 16.609 18.136 17.0483 17.6094C17.6416 16.8982 18.34 16.1377 19.087 15.4826C19.8236 14.8365 20.663 14.2434 21.5412 13.9324C22.0618 13.748 22.6332 14.0206 22.8176 14.5412Z" fill="#333DFF"/>
</svg>
