<svg width="24" height="24" viewBox="0 0 24 24" fill="none" xmlns="http://www.w3.org/2000/svg">
<path d="M12.75 1.25031C13.2214 1.25031 13.4571 1.25034 13.6035 1.39679C13.75 1.54324 13.75 1.7789 13.75 2.25031V4.31964C13.75 5.03819 13.7495 5.65185 13.8154 6.14191C13.8857 6.66475 14.0435 7.15791 14.4424 7.55695C14.8415 7.95609 15.3353 8.11358 15.8584 8.1839C16.1034 8.21684 16.3792 8.23329 16.6836 8.24152L17.6807 8.25031H19.75C20.2214 8.25031 20.4571 8.25034 20.6035 8.39679C20.75 8.54324 20.75 8.7789 20.75 9.25031V16.055C20.75 17.4225 20.7503 18.525 20.6338 19.3919C20.5128 20.292 20.2533 21.0498 19.6514 21.6517C19.0495 22.2536 18.2917 22.5131 17.3916 22.6341C16.5247 22.7506 15.4222 22.7503 14.0547 22.7503L9.94531 22.7503C8.57782 22.7503 7.47534 22.7506 6.6084 22.6341C5.70829 22.5131 4.95055 22.2536 4.34863 21.6517C3.74672 21.0498 3.48723 20.292 3.36621 19.3919C3.24968 18.525 3.24998 17.4225 3.25 16.055L3.25 7.94562C3.24998 6.57814 3.24968 5.47564 3.36621 4.6087C3.48723 3.7086 3.74672 2.95086 4.34863 2.34894C4.95055 1.74702 5.70829 1.48753 6.6084 1.36652C7.47534 1.24998 8.57782 1.25029 9.94531 1.25031L12.75 1.25031ZM8 17.2503C7.58579 17.2503 7.25 17.5861 7.25 18.0003C7.25017 18.4144 7.58589 18.7503 8 18.7503L14.5 18.7503C14.9141 18.7503 15.2498 18.4144 15.25 18.0003C15.25 17.5861 14.9142 17.2503 14.5 17.2503L8 17.2503ZM8 14.2503C7.58579 14.2503 7.25 14.5861 7.25 15.0003C7.25017 15.4144 7.58589 15.7503 8 15.7503L16 15.7503C16.4141 15.7503 16.7498 15.4144 16.75 15.0003C16.75 14.5861 16.4142 14.2503 16 14.2503L8 14.2503ZM8 11.2503C7.58579 11.2503 7.25 11.5861 7.25 12.0003C7.25017 12.4144 7.58589 12.7503 8 12.7503L16 12.7503C16.4141 12.7503 16.7498 12.4144 16.75 12.0003C16.75 11.5861 16.4142 11.2503 16 11.2503L8 11.2503ZM15.2559 1.38312C15.5825 1.51846 15.83 1.76842 16.0596 1.99933L20.001 5.94074C20.2319 6.17032 20.4818 6.41784 20.6172 6.74445C20.6183 6.74707 20.6161 6.75009 20.6133 6.75031L17.7305 6.75031C16.9482 6.75031 16.4368 6.74837 16.0586 6.69757C15.7021 6.64964 15.5779 6.57035 15.5039 6.4964C15.4299 6.42241 15.3507 6.29844 15.3027 5.94171C15.2519 5.56342 15.25 5.05152 15.25 4.26886V1.38702C15.25 1.3839 15.253 1.38192 15.2559 1.38312Z" fill="#333DFF"/>
</svg>
