<svg width="24" height="24" viewBox="0 0 24 24" fill="none" xmlns="http://www.w3.org/2000/svg">
<path d="M8.90039 6.74988C9.18291 6.74988 9.32428 6.75 9.41211 6.83777C9.49998 6.92564 9.5 7.06762 9.5 7.35046V7.72449C9.5 9.10747 10.6193 10.2284 12 10.2284C13.3807 10.2284 14.5 9.10747 14.5 7.72449V7.35046C14.5 7.06762 14.5 6.92564 14.5879 6.83777C14.6757 6.75 14.8171 6.74988 15.0996 6.74988H16.4795C17.0269 6.76746 17.5222 6.79686 17.9697 6.8446C19.1317 6.9686 20.0741 7.22719 20.8574 7.8114C21.0918 7.98624 21.3092 8.17923 21.5068 8.38855C22.173 9.0942 22.4706 9.94956 22.6123 10.9989C22.7499 12.0183 22.75 13.3083 22.75 14.9364V15.036C22.75 16.664 22.7499 17.9541 22.6123 18.9735C22.4706 20.0228 22.1729 20.8782 21.5068 21.5839C21.3091 21.7933 21.0919 21.9871 20.8574 22.162C20.0741 22.7462 19.1317 23.0048 17.9697 23.1288C16.8312 23.2502 15.3867 23.2499 13.5479 23.2499H10.4521C8.61329 23.2499 7.1688 23.2502 6.03027 23.1288C4.86827 23.0048 3.92588 22.7462 3.14258 22.162C2.90806 21.9871 2.69086 21.7933 2.49316 21.5839C1.82707 20.8782 1.52938 20.0228 1.3877 18.9735C1.25009 17.9541 1.24999 16.664 1.25 15.036V14.9364C1.24999 13.3083 1.25005 12.0183 1.3877 10.9989C1.5294 9.94956 1.82701 9.0942 2.49316 8.38855C2.69078 8.17923 2.90817 7.98624 3.14258 7.8114C3.92588 7.22719 4.86826 6.9686 6.03027 6.8446C6.47779 6.79686 6.97313 6.76746 7.52051 6.74988H8.90039ZM12 12.4843C10.3433 12.4844 9.00003 13.8297 9 15.4891C9 17.1486 10.3433 18.4939 12 18.494C13.6569 18.494 15 17.1487 15 15.4891C15 13.8296 13.6568 12.4843 12 12.4843ZM5.49121 14.4843C4.93893 14.4843 4.49121 14.933 4.49121 15.4862C4.49138 16.0393 4.93903 16.4872 5.49121 16.4872H5.5C6.05218 16.4872 6.49983 16.0393 6.5 15.4862C6.5 14.933 6.05229 14.4843 5.5 14.4843H5.49121ZM18.499 14.4843C17.9467 14.4843 17.499 14.933 17.499 15.4862C17.4992 16.0393 17.9468 16.4872 18.499 16.4872H18.5078C19.06 16.4872 19.5076 16.0393 19.5078 15.4862C19.5078 14.933 19.0601 14.4843 18.5078 14.4843H18.499Z" fill="#333DFF"/>
<path fill-rule="evenodd" clip-rule="evenodd" d="M13.0059 7.74992C13.0059 8.3022 12.5581 8.74992 12.0059 8.74992C11.4536 8.74992 11.0059 8.3022 11.0059 7.74992L11.0059 5.24988L10.4116 5.2499C10.236 5.25002 10.0203 5.25018 9.84387 5.22811L9.84053 5.22769C9.71408 5.21192 9.13804 5.14008 8.86368 4.57449C8.58872 4.00766 8.89065 3.50752 8.95597 3.39932L8.95841 3.39529C9.05062 3.24227 9.18477 3.07139 9.29511 2.93083L9.31885 2.90059C9.61348 2.52476 9.99545 2.04055 10.3759 1.64954C10.5657 1.45443 10.783 1.25319 11.0139 1.09435C11.2191 0.953142 11.5693 0.749878 12 0.749878C12.4307 0.749878 12.7809 0.953142 12.9861 1.09435C13.217 1.25319 13.4343 1.45443 13.6241 1.64954C14.0046 2.04055 14.3865 2.52476 14.6812 2.90059L14.7049 2.93083C14.8152 3.07138 14.9494 3.24226 15.0416 3.39529L15.044 3.39932C15.1093 3.50753 15.4113 4.00767 15.1363 4.57449C14.862 5.14009 14.2859 5.21192 14.1595 5.22769L14.1561 5.22811C13.9797 5.25018 13.764 5.25002 13.5884 5.2499L13.0059 5.24988L13.0059 7.74992Z" fill="#333DFF"/>
</svg>
