<svg xmlns="http://www.w3.org/2000/svg" width="137" height="37" viewBox="0 0 137 37" fill="none"><g id="menu logo"><path id="Vector" d="M40.6163 0H35.311V5.30529H40.6163V0Z" fill="#06FC88"></path><path id="Vector_2" d="M107.562 14.2629H101.516V20.3085H107.562V14.2629Z" fill="#06FC88"></path><path id="Vector_3" d="M125.748 0.0246773L113.336 0V5.30529H116.914L107.562 29.5369H114.125L116.247 23.9355H128.339L130.387 29.5369H137L125.748 0.0246773ZM117.975 18.6302L122.293 7.10662L126.537 18.6302H117.975Z" fill="#0C092D"></path><path id="Vector_4" d="M24.2316 0H0V5.30529H9.20406V29.5616H15.0275V5.30529H24.2316V0Z" fill="#0C092D"></path><path id="Vector_5" d="M24.2311 10.8083V7.89651H18.5803V29.5618H24.3544V19.9876C24.3544 14.2135 26.748 13.2018 32.5468 13.2018V7.87184C30.6714 7.5017 27.1675 7.32897 24.2311 10.8083Z" fill="#0C092D"></path><path id="Vector_6" d="M40.7156 7.89673H35.2129V29.562H40.7156V7.89673Z" fill="#0C092D"></path><path id="Vector_7" d="M56.1127 7.27979C53.275 7.27979 50.9555 8.43955 49.0308 11.1292H48.9567V7.89668H43.5281V36.6686H49.0308V26.7736C50.2646 28.5503 52.4113 30.2282 55.7179 30.2282C60.9245 30.2282 65.6622 25.91 65.6622 18.6553C65.6622 12.4123 62.0842 7.27979 56.1127 7.27979ZM54.4594 25.0217C51.2763 25.0217 48.9074 22.4554 48.9074 18.7787C48.9074 15.102 51.2763 12.4864 54.4594 12.4864C57.6426 12.4864 59.9621 15.0773 59.9621 18.7787C59.9621 22.4554 57.692 25.0217 54.4594 25.0217Z" fill="#0C092D"></path><path id="Vector_8" d="M87.4258 25.3422C84.5634 25.3422 82.0711 23.5655 81.6023 20.3083H97.6662V18.8278C97.6662 10.8575 92.5583 7.3042 87.0803 7.3042C80.6646 7.3042 76.0996 12.19 76.0996 18.8771C76.0996 25.5643 80.9854 30.2527 87.4751 30.2527C92.583 30.2527 96.2844 27.489 97.7402 23.9603L92.583 21.9122C91.6207 24.1331 89.696 25.3422 87.4258 25.3422ZM87.031 11.9432C89.4985 11.9432 91.7194 13.2264 92.1142 16.5576H81.8737C82.4413 13.8433 84.2179 11.9432 87.031 11.9432Z" fill="#0C092D"></path><path id="Vector_9" d="M64.6013 0V5.30529H68.1546V29.5616H73.6573V0H64.6013Z" fill="#0C092D"></path></g></svg>