<svg width="24" height="24" viewBox="0 0 24 24" fill="none" xmlns="http://www.w3.org/2000/svg">
<path d="M9.07966 2.78642C11.0326 2.73735 12.9666 2.73736 14.9195 2.78642L14.9781 2.78837C16.5029 2.82666 17.7301 2.85736 18.7134 3.0286C19.7428 3.20791 20.5799 3.55153 21.2867 4.26103C21.9905 4.96751 22.3325 5.79236 22.5084 6.80497C22.6758 7.76932 22.7014 8.96672 22.733 10.4495L22.734 10.5081C22.7552 11.5044 22.7552 12.4952 22.734 13.4915L22.733 13.5501C22.7014 15.0329 22.6758 16.2302 22.5084 17.1946C22.3325 18.2073 21.9904 19.032 21.2867 19.7386C20.5799 20.448 19.7428 20.7917 18.7134 20.971C17.7301 21.1422 16.5029 21.1739 14.9781 21.2122L14.9195 21.2132C12.9666 21.2622 11.0326 21.2622 9.07966 21.2132L9.02204 21.2122C7.49725 21.1739 6.26999 21.1422 5.28669 20.971C4.25719 20.7917 3.42031 20.4481 2.71344 19.7386C2.00961 19.032 1.66764 18.2074 1.49176 17.1946C1.32429 16.2302 1.29875 15.0329 1.26716 13.5501L1.26618 13.4915C1.24493 12.4952 1.24493 11.5044 1.26618 10.5081L1.26716 10.4495C1.29875 8.96672 1.3243 7.76932 1.49176 6.80497C1.66767 5.79235 2.00964 4.96751 2.71344 4.26103C3.42029 3.55155 4.25724 3.20789 5.28669 3.0286C6.26999 2.85737 7.49726 2.82666 9.02204 2.78837L9.07966 2.78642ZM17.6461 8.11845C17.4353 7.76196 16.9752 7.64412 16.6187 7.85478L13.6763 9.59403C12.832 10.0932 12.3826 10.2503 11.9996 10.2503C11.6167 10.2502 11.1678 10.093 10.3238 9.59403L7.38141 7.85478C7.02487 7.64404 6.56486 7.76192 6.35407 8.11845C6.14341 8.47498 6.26222 8.93502 6.61872 9.14579L9.56012 10.885C10.4308 11.3998 11.1824 11.7502 11.9996 11.7503C12.817 11.7503 13.5692 11.3999 14.44 10.885L17.3814 9.14579C17.7379 8.93503 17.8567 8.47497 17.6461 8.11845Z" fill="#333DFF"/>
</svg>
