<svg width="48" height="48" viewBox="0 0 48 48" fill="none" xmlns="http://www.w3.org/2000/svg">
<path d="M17.9098 3.32355C21.8159 3.22542 25.6844 3.22541 29.5905 3.32355L29.7067 3.32648C32.7561 3.40305 35.2099 3.46449 37.1764 3.80695C39.2354 4.16553 40.9092 4.85366 42.3229 6.27277C43.7306 7.68585 44.4145 9.3352 44.7662 11.3607C45.1012 13.2894 45.1523 15.684 45.2155 18.6497L45.2184 18.7669C45.2371 19.643 45.2474 20.5173 45.2496 21.3909C45.2529 22.6374 45.2538 23.2604 44.9264 23.428C44.5989 23.5954 44.0502 23.1984 42.9528 22.4036C40.6476 20.7342 37.8134 19.7503 34.7496 19.7503C27.0178 19.7505 20.7496 26.0184 20.7496 33.7503C20.7497 35.3861 21.0309 36.9561 21.5465 38.4153C21.8573 39.2949 22.0125 39.7351 21.8297 39.9896C21.6469 40.2441 21.2132 40.2377 20.3463 40.2249C19.5354 40.213 18.7234 40.1965 17.9098 40.1761L17.7936 40.1732C14.744 40.0966 12.2895 40.0352 10.3229 39.6927C8.2641 39.3341 6.591 38.6459 5.17738 37.2269C3.76967 35.8137 3.08479 34.1645 2.73304 32.139C2.39815 30.2103 2.34799 27.8163 2.2848 24.8509L2.28187 24.7337C2.23937 22.7411 2.23938 20.7596 2.28187 18.7669L2.2848 18.6497C2.34799 15.684 2.3981 13.2894 2.73304 11.3607C3.08481 9.33508 3.76959 7.68591 5.17738 6.27277C6.59101 4.85378 8.26409 4.16555 10.3229 3.80695C12.2895 3.46445 14.7439 3.40305 17.7936 3.32648L17.9098 3.32355ZM35.0416 12.5569C34.62 11.8439 33.7 11.608 32.9869 12.0296L27.1032 15.5081C25.4148 16.5064 24.5165 16.8205 23.7506 16.8206C22.9847 16.8206 22.0866 16.5064 20.3981 15.5081L14.5133 12.0296C13.8002 11.6081 12.8802 11.8439 12.4586 12.5569C12.037 13.2701 12.2738 14.19 12.9869 14.6116L18.8707 18.0902C20.6124 19.1199 22.1159 19.8206 23.7506 19.8206C25.3852 19.8205 26.888 19.1198 28.6295 18.0902L34.5133 14.6116C35.2264 14.19 35.4633 13.2701 35.0416 12.5569Z" fill="#333DFF"/>
<path fill-rule="evenodd" clip-rule="evenodd" d="M34.75 26.75C30.884 26.75 27.75 29.884 27.75 33.75C27.75 37.616 30.884 40.75 34.75 40.75C35.8546 40.75 36.75 41.6454 36.75 42.75C36.75 43.8546 35.8546 44.75 34.75 44.75C28.6749 44.75 23.75 39.8251 23.75 33.75C23.75 27.6749 28.6749 22.75 34.75 22.75C40.8251 22.75 45.75 27.6749 45.75 33.75V34.75C45.75 37.5114 43.5114 39.75 40.75 39.75C39.3092 39.75 38.0107 39.1406 37.0982 38.1654C36.3981 38.5385 35.5987 38.75 34.75 38.75C31.9886 38.75 29.75 36.5114 29.75 33.75C29.75 30.9886 31.9886 28.75 34.75 28.75C37.5114 28.75 39.75 30.9886 39.75 33.75V34.75C39.75 35.3023 40.1977 35.75 40.75 35.75C41.3023 35.75 41.75 35.3023 41.75 34.75V33.75C41.75 29.884 38.616 26.75 34.75 26.75ZM35.75 33.75C35.75 33.1977 35.3023 32.75 34.75 32.75C34.1977 32.75 33.75 33.1977 33.75 33.75C33.75 34.3023 34.1977 34.75 34.75 34.75C35.3023 34.75 35.75 34.3023 35.75 33.75Z" fill="#333DFF"/>
</svg>
