<svg width="64" height="64" viewBox="0 0 64 64" fill="none" xmlns="http://www.w3.org/2000/svg">
<path fill-rule="evenodd" clip-rule="evenodd" d="M19.3333 12.8081C12.5421 13.7764 7.33325 19.6048 7.33325 26.6668H3.33325C3.33325 16.7165 11.383 8.66682 21.3333 8.66682H23.3333V17.3335H19.3333V12.8081Z" fill="#161141"/>
<path fill-rule="evenodd" clip-rule="evenodd" d="M44.6667 51.1922C51.4579 50.2239 56.6667 44.3955 56.6667 37.3335H60.6667C60.6667 47.2838 52.617 55.3335 42.6667 55.3335H40.6667V46.6668H44.6667V51.1922Z" fill="#161141"/>
<path fill-rule="evenodd" clip-rule="evenodd" d="M45.4315 4.77635C40.0216 2.53723 34.2956 3.19288 31.1029 4.79516L30 5.34867V29.899L32.8971 28.4451C35.0377 27.3708 39.5501 26.746 43.9018 28.5472C49.0645 30.6839 55.7002 31.3921 58.7054 31.3339L60.6667 31.2959V7.2203L58.6279 7.25977C56.0298 7.31008 49.9671 6.65357 45.4315 4.77635ZM48.0233 14.6676H42.666V20.001H48.0233V14.6676Z" fill="#22F49D"/>
<path fill-rule="evenodd" clip-rule="evenodd" d="M32.897 34.1285C29.7043 32.5262 23.9784 31.8706 18.5684 34.1097C14.0328 35.9869 7.97012 36.6434 5.37197 36.5931L3.33325 36.5536V60.6292L5.29453 60.6672C8.29969 60.7254 14.9354 60.0172 20.0981 57.8805C24.4498 56.0793 28.9622 56.7041 31.1028 57.7784L33.9999 59.2323V34.682L32.897 34.1285ZM21.3566 44.001H15.9993V49.3343H21.3566V44.001Z" fill="#22F49D"/>
</svg>
