<svg width="64" height="64" viewBox="0 0 64 64" fill="none" xmlns="http://www.w3.org/2000/svg">
<path d="M45 3C47.9862 3.00001 50.8412 3.32715 53.4463 3.92383C55.8917 4.48393 57.7533 5.56558 58.9248 7.36621C60.0473 9.0917 60.333 11.1788 60.333 13.3037V35.248C60.333 35.6947 59.5189 35.8877 59.2471 35.5332L59.2383 35.5225C59.1151 35.3615 58.9801 35.2098 58.834 35.0693L55.7998 32.1543C55.7792 32.1345 55.7583 32.115 55.7373 32.0957C53.0286 29.6019 48.8112 29.7757 46.3174 32.4844C46.2396 32.5689 46.1644 32.6549 46.0918 32.7422C45.7795 33.118 45.6233 33.306 45.4619 33.3818C45.3005 33.4576 45.0962 33.458 44.6885 33.458H44.6738C36.8683 33.458 30.333 39.7063 30.333 47.667C30.333 47.8289 30.3426 47.9886 30.3613 48.1455C30.504 49.3405 30.5757 49.9387 30.4189 50.1816C30.2618 50.4243 29.8934 50.5397 29.1572 50.7695C25.9428 51.773 22.2419 52.333 18.333 52.333C15.3469 52.333 12.4918 52.0068 9.88672 51.4102C7.55172 50.8753 5.70755 49.8297 4.51074 48.0635C3.35336 46.3553 3 44.2574 3 42.0293V13.3037C3.00014 9.12484 7.24226 6.70088 10.7793 7.51074C13.0791 8.03749 15.6344 8.33299 18.333 8.33301C23.2014 8.33301 27.5727 7.37131 30.8203 5.85449C34.6795 4.05207 39.6441 3 45 3ZM31.667 19.667C27.2487 19.667 23.667 23.2487 23.667 27.667C23.6672 32.0851 27.2488 35.667 31.667 35.667C36.085 35.6668 39.6668 32.085 39.667 27.667C39.667 23.2489 36.0851 19.6672 31.667 19.667ZM14.333 27.667C12.8605 27.6671 11.6672 28.8605 11.667 30.333V30.3574C11.6671 31.83 12.8604 33.0243 14.333 33.0244C15.8057 33.0244 16.9999 31.8301 17 30.3574V30.333C16.9998 28.8604 15.8057 27.667 14.333 27.667ZM49 22.3125C47.5272 22.3125 46.333 23.5067 46.333 24.9795V25.0029C46.333 26.4757 47.5272 27.6699 49 27.6699C50.4727 27.6699 51.667 26.4757 51.667 25.0029V24.9795C51.667 23.5068 50.4727 22.3126 49 22.3125Z" fill="#22F49D"/>
<path d="M49.2603 35.1938C50.2579 34.1103 51.9449 34.0406 53.0283 35.0382L56.062 37.9536C56.2447 38.1924 57.1597 39.4128 56.5073 40.9607C55.865 42.4849 54.3797 42.7007 54.09 42.7409C53.7171 42.7927 53.2838 42.7919 53.0212 42.7913L44.6738 42.7912C41.8646 42.7912 39.6666 45.0174 39.6666 47.6667C39.6666 49.1394 38.4727 50.3333 36.9999 50.3333C35.5272 50.3333 34.3333 49.1394 34.3333 47.6667C34.3333 41.9852 39.0066 37.4579 44.6738 37.4579H48.5949C48.4581 36.6693 48.6763 35.8281 49.2603 35.1938Z" fill="#141B34"/>
<path d="M58.3333 45C59.806 45 60.9999 46.1939 60.9999 47.6667C60.9999 53.3481 56.3266 57.8754 50.6594 57.8754H46.7382C46.8751 58.664 46.6569 59.5052 46.0728 60.1395C45.0753 61.223 43.3883 61.2927 42.3048 60.2951L39.2712 57.3798C39.0884 57.141 38.1735 55.9205 38.8258 54.3726C39.4682 52.8485 40.9535 52.6327 41.2431 52.5924C41.616 52.5406 42.0493 52.5415 42.3119 52.542H42.3119L50.6594 52.5421C53.4685 52.5421 55.6666 50.3159 55.6666 47.6667C55.6666 46.1939 56.8605 45 58.3333 45Z" fill="#141B34"/>
</svg>
