<svg width="48" height="48" viewBox="0 0 48 48" fill="none" xmlns="http://www.w3.org/2000/svg">
<rect width="48" height="48" rx="24" fill="#61C478"/>
<path d="M20.9995 30.5572L16.3729 25.9305C16.1236 25.6812 15.7854 25.5411 15.4329 25.5411C15.0803 25.5411 14.7422 25.6812 14.4929 25.9305C14.2436 26.1798 14.1035 26.5179 14.1035 26.8705C14.1035 27.0451 14.1379 27.2179 14.2047 27.3792C14.2715 27.5405 14.3694 27.6871 14.4929 27.8105L20.0662 33.3838C20.5862 33.9038 21.4262 33.9038 21.9462 33.3838L36.0529 19.2772C36.3022 19.0279 36.4422 18.6897 36.4422 18.3372C36.4422 17.9846 36.3022 17.6465 36.0529 17.3972C35.8036 17.1479 35.4654 17.0078 35.1129 17.0078C34.7603 17.0078 34.4222 17.1479 34.1729 17.3972L20.9995 30.5572Z" fill="white"/>
</svg>
