<svg width="64" height="64" viewBox="0 0 64 64" fill="none" xmlns="http://www.w3.org/2000/svg">
<path d="M47.4825 39.5658C47.7927 39.7505 48.1758 39.9666 48.6096 40.2114C50.5104 41.2838 53.3838 42.9048 55.3522 44.8316C56.5834 46.0366 57.7531 47.6245 57.9657 49.57C58.1919 51.6389 57.2893 53.5805 55.4786 55.3055C52.3548 58.2817 48.606 60.6667 43.7572 60.6667H20.2418C15.393 60.6667 11.6442 58.2817 8.52037 55.3055C6.70965 53.5805 5.80708 51.6389 6.03323 49.57C6.24589 47.6245 7.41563 46.0366 8.64675 44.8316C10.6152 42.9048 13.4886 41.2837 15.3894 40.2114C15.8231 39.9666 16.2063 39.7505 16.5165 39.5658C25.9939 33.9225 38.0051 33.9225 47.4825 39.5658Z" fill="#00FF88"/>
<path d="M17.9995 17.3333C17.9995 9.60135 24.2675 3.33333 31.9995 3.33333C39.7315 3.33333 45.9995 9.60135 45.9995 17.3333C45.9995 25.0653 39.7315 31.3333 31.9995 31.3333C24.2675 31.3333 17.9995 25.0653 17.9995 17.3333Z" fill="#00FF88"/>
</svg>
