<svg width="48" height="48" viewBox="0 0 48 48" fill="none" xmlns="http://www.w3.org/2000/svg">
<path d="M28.1777 4.49989C29.7321 4.49906 30.8868 4.4983 31.8867 4.76552C34.5847 5.48675 36.6921 7.58949 37.415 10.2811C37.5858 10.9168 37.6478 11.6153 37.6699 12.4393C37.9619 12.4651 38.2429 12.495 38.5127 12.5311C40.3262 12.7744 41.9276 13.3055 43.21 14.5849C44.4923 15.8642 45.0238 17.4622 45.2676 19.2714C45.4998 20.9947 45.5001 23.172 45.5 25.8124V29.9872C45.5001 32.6275 45.4998 34.805 45.2676 36.5282C45.0238 38.3375 44.4924 39.9363 43.21 41.2157C41.9276 42.4949 40.326 43.0252 38.5127 43.2684C36.7854 43.5001 34.6027 43.5 31.9561 43.4999H19.9482C16.3843 43.4999 13.5113 43.5002 11.252 43.1972C8.90629 42.8825 6.93091 42.2093 5.36231 40.6444C3.79369 39.0795 3.11909 37.1087 2.80371 34.7684C2.49995 32.5144 2.49995 29.6483 2.5 26.0927V10.3495C2.50024 7.11898 5.1252 4.50009 8.36328 4.49989H28.1777ZM35 23.9999C32.7909 23.9999 31 25.7908 31 27.9999C31.0001 30.209 32.7909 31.9999 35 31.9999C37.2091 31.9999 38.9999 30.209 39 27.9999C39 25.7908 37.2091 23.9999 35 23.9999ZM8.36231 8.40029C7.28318 8.40052 6.40843 9.2729 6.4082 10.3495C6.4082 11.4263 7.28304 12.2995 8.36231 12.2997H31.9551C32.5801 12.2997 33.1796 12.2996 33.7529 12.3026C33.735 11.7989 33.7009 11.5229 33.6387 11.2909C33.2772 9.94506 32.223 8.89372 30.874 8.5331C30.4396 8.41705 29.8512 8.40029 27.9082 8.40029H8.36231Z" fill="#333DFF"/>
</svg>
